<svg xmlns="http://www.w3.org/2000/svg" xmlns:xlink="http://www.w3.org/1999/xlink" width="500" zoomAndPan="magnify" viewBox="0 0 375 74.999997" height="100" preserveAspectRatio="xMidYMid meet" version="1.0"><defs><g><g id="id1"/></g><clipPath id="id2"><path d="M 15.828125 0.613281 L 87.078125 0.613281 L 87.078125 74.113281 L 15.828125 74.113281 Z M 15.828125 0.613281 " clip-rule="nonzero"/></clipPath><clipPath id="id3"><path d="M 87.070312 23.417969 L 75.511719 7.804688 L 61.214844 18.226562 L 61.214844 0.625 L 41.691406 0.625 L 41.691406 18.226562 L 27.394531 7.804688 L 15.835938 23.417969 L 34.964844 37.363281 L 15.835938 51.304688 L 27.394531 66.917969 L 41.691406 56.5 L 41.691406 74.101562 L 61.214844 74.101562 L 61.214844 56.5 L 75.511719 66.917969 L 87.070312 51.304688 L 67.941406 37.363281 Z M 87.070312 23.417969 " clip-rule="nonzero"/></clipPath><linearGradient x1="115.917993" gradientTransform="matrix(0.368407, 0, 0, 0.365552, -26.870406, -40.354102)" y1="212.60001" x2="309.282976" gradientUnits="userSpaceOnUse" y2="212.60001" xlink:type="simple" xlink:actuate="onLoad" id="id4" xlink:show="other"><stop stop-opacity="1" stop-color="rgb(100%, 42.698669%, 52.49939%)" offset="0"/><stop stop-opacity="1" stop-color="rgb(99.964905%, 42.558289%, 52.377319%)" offset="0.015625"/><stop stop-opacity="1" stop-color="rgb(99.897766%, 42.277527%, 52.133179%)" offset="0.03125"/><stop stop-opacity="1" stop-color="rgb(99.830627%, 41.995239%, 51.889038%)" offset="0.046875"/><stop stop-opacity="1" stop-color="rgb(99.763489%, 41.714478%, 51.646423%)" offset="0.0625"/><stop stop-opacity="1" stop-color="rgb(99.69635%, 41.433716%, 51.402283%)" offset="0.078125"/><stop stop-opacity="1" stop-color="rgb(99.629211%, 41.151428%, 51.158142%)" offset="0.09375"/><stop stop-opacity="1" stop-color="rgb(99.562073%, 40.870667%, 50.914001%)" offset="0.109375"/><stop stop-opacity="1" stop-color="rgb(99.494934%, 40.589905%, 50.671387%)" offset="0.125"/><stop stop-opacity="1" stop-color="rgb(99.427795%, 40.307617%, 50.427246%)" offset="0.140625"/><stop stop-opacity="1" stop-color="rgb(99.360657%, 40.026855%, 50.183105%)" offset="0.15625"/><stop stop-opacity="1" stop-color="rgb(99.293518%, 39.746094%, 49.938965%)" offset="0.171875"/><stop stop-opacity="1" stop-color="rgb(99.226379%, 39.465332%, 49.69635%)" offset="0.1875"/><stop stop-opacity="1" stop-color="rgb(99.159241%, 39.183044%, 49.452209%)" offset="0.203125"/><stop stop-opacity="1" stop-color="rgb(99.092102%, 38.902283%, 49.208069%)" offset="0.21875"/><stop stop-opacity="1" stop-color="rgb(99.024963%, 38.621521%, 48.963928%)" offset="0.234375"/><stop stop-opacity="1" stop-color="rgb(98.957825%, 38.339233%, 48.721313%)" offset="0.25"/><stop stop-opacity="1" stop-color="rgb(98.890686%, 38.058472%, 48.477173%)" offset="0.265625"/><stop stop-opacity="1" stop-color="rgb(98.823547%, 37.77771%, 48.233032%)" offset="0.28125"/><stop stop-opacity="1" stop-color="rgb(98.756409%, 37.495422%, 47.990417%)" offset="0.296875"/><stop stop-opacity="1" stop-color="rgb(98.68927%, 37.214661%, 47.746277%)" offset="0.3125"/><stop stop-opacity="1" stop-color="rgb(98.622131%, 36.933899%, 47.502136%)" offset="0.328125"/><stop stop-opacity="1" stop-color="rgb(98.554993%, 36.651611%, 47.257996%)" offset="0.34375"/><stop stop-opacity="1" stop-color="rgb(98.487854%, 36.37085%, 47.015381%)" offset="0.359375"/><stop stop-opacity="1" stop-color="rgb(98.420715%, 36.090088%, 46.77124%)" offset="0.375"/><stop stop-opacity="1" stop-color="rgb(98.353577%, 35.8078%, 46.5271%)" offset="0.390625"/><stop stop-opacity="1" stop-color="rgb(98.286438%, 35.527039%, 46.282959%)" offset="0.40625"/><stop stop-opacity="1" stop-color="rgb(98.219299%, 35.246277%, 46.040344%)" offset="0.421875"/><stop stop-opacity="1" stop-color="rgb(98.152161%, 34.963989%, 45.796204%)" offset="0.4375"/><stop stop-opacity="1" stop-color="rgb(98.085022%, 34.683228%, 45.552063%)" offset="0.453125"/><stop stop-opacity="1" stop-color="rgb(98.017883%, 34.402466%, 45.307922%)" offset="0.46875"/><stop stop-opacity="1" stop-color="rgb(97.950745%, 34.120178%, 45.065308%)" offset="0.484375"/><stop stop-opacity="1" stop-color="rgb(97.88208%, 33.839417%, 44.821167%)" offset="0.5"/><stop stop-opacity="1" stop-color="rgb(97.814941%, 33.558655%, 44.577026%)" offset="0.515625"/><stop stop-opacity="1" stop-color="rgb(97.747803%, 33.276367%, 44.332886%)" offset="0.53125"/><stop stop-opacity="1" stop-color="rgb(97.680664%, 32.995605%, 44.090271%)" offset="0.546875"/><stop stop-opacity="1" stop-color="rgb(97.613525%, 32.714844%, 43.84613%)" offset="0.5625"/><stop stop-opacity="1" stop-color="rgb(97.546387%, 32.434082%, 43.60199%)" offset="0.578125"/><stop stop-opacity="1" stop-color="rgb(97.479248%, 32.151794%, 43.357849%)" offset="0.59375"/><stop stop-opacity="1" stop-color="rgb(97.412109%, 31.871033%, 43.115234%)" offset="0.609375"/><stop stop-opacity="1" stop-color="rgb(97.344971%, 31.590271%, 42.871094%)" offset="0.625"/><stop stop-opacity="1" stop-color="rgb(97.277832%, 31.307983%, 42.626953%)" offset="0.640625"/><stop stop-opacity="1" stop-color="rgb(97.210693%, 31.027222%, 42.382812%)" offset="0.65625"/><stop stop-opacity="1" stop-color="rgb(97.143555%, 30.74646%, 42.140198%)" offset="0.671875"/><stop stop-opacity="1" stop-color="rgb(97.076416%, 30.464172%, 41.896057%)" offset="0.6875"/><stop stop-opacity="1" stop-color="rgb(97.009277%, 30.183411%, 41.651917%)" offset="0.703125"/><stop stop-opacity="1" stop-color="rgb(96.942139%, 29.902649%, 41.407776%)" offset="0.71875"/><stop stop-opacity="1" stop-color="rgb(96.875%, 29.620361%, 41.165161%)" offset="0.734375"/><stop stop-opacity="1" stop-color="rgb(96.807861%, 29.3396%, 40.921021%)" offset="0.75"/><stop stop-opacity="1" stop-color="rgb(96.740723%, 29.058838%, 40.67688%)" offset="0.765625"/><stop stop-opacity="1" stop-color="rgb(96.673584%, 28.77655%, 40.432739%)" offset="0.78125"/><stop stop-opacity="1" stop-color="rgb(96.606445%, 28.495789%, 40.190125%)" offset="0.796875"/><stop stop-opacity="1" stop-color="rgb(96.539307%, 28.215027%, 39.945984%)" offset="0.8125"/><stop stop-opacity="1" stop-color="rgb(96.472168%, 27.932739%, 39.701843%)" offset="0.828125"/><stop stop-opacity="1" stop-color="rgb(96.405029%, 27.651978%, 39.457703%)" offset="0.84375"/><stop stop-opacity="1" stop-color="rgb(96.337891%, 27.371216%, 39.215088%)" offset="0.859375"/><stop stop-opacity="1" stop-color="rgb(96.270752%, 27.088928%, 38.970947%)" offset="0.875"/><stop stop-opacity="1" stop-color="rgb(96.203613%, 26.808167%, 38.726807%)" offset="0.890625"/><stop stop-opacity="1" stop-color="rgb(96.136475%, 26.527405%, 38.482666%)" offset="0.90625"/><stop stop-opacity="1" stop-color="rgb(96.069336%, 26.245117%, 38.240051%)" offset="0.921875"/><stop stop-opacity="1" stop-color="rgb(96.002197%, 25.964355%, 37.995911%)" offset="0.9375"/><stop stop-opacity="1" stop-color="rgb(95.935059%, 25.683594%, 37.75177%)" offset="0.953125"/><stop stop-opacity="1" stop-color="rgb(95.86792%, 25.402832%, 37.509155%)" offset="0.96875"/><stop stop-opacity="1" stop-color="rgb(95.799255%, 25.120544%, 37.265015%)" offset="0.984375"/><stop stop-opacity="1" stop-color="rgb(95.732117%, 24.839783%, 37.020874%)" offset="1"/></linearGradient></defs><g clip-path="url(#id2)"><g clip-path="url(#id3)"><path fill="url(#id4)" d="M 15.835938 0.625 L 15.835938 74.101562 L 87.070312 74.101562 L 87.070312 0.625 Z M 15.835938 0.625 " fill-rule="nonzero"/></g></g><path fill="rgb(1.959229%, 2.349854%, 2.749634%)" d="M 55.230469 13.421875 C 55.230469 13.917969 55.132812 14.398438 54.941406 14.855469 C 54.75 15.316406 54.476562 15.71875 54.125 16.070312 C 53.769531 16.421875 53.359375 16.695312 52.898438 16.882812 C 52.4375 17.074219 51.953125 17.167969 51.453125 17.167969 C 50.953125 17.167969 50.472656 17.074219 50.007812 16.882812 C 49.546875 16.695312 49.136719 16.421875 48.785156 16.070312 C 48.429688 15.71875 48.15625 15.316406 47.964844 14.855469 C 47.773438 14.398438 47.675781 13.917969 47.675781 13.421875 C 47.675781 12.925781 47.773438 12.445312 47.964844 11.988281 C 48.15625 11.527344 48.429688 11.125 48.785156 10.773438 C 49.136719 10.421875 49.546875 10.148438 50.007812 9.960938 C 50.472656 9.769531 50.953125 9.675781 51.453125 9.675781 C 51.953125 9.675781 52.4375 9.769531 52.898438 9.960938 C 53.359375 10.148438 53.769531 10.421875 54.125 10.773438 C 54.476562 11.125 54.75 11.527344 54.941406 11.988281 C 55.132812 12.445312 55.230469 12.925781 55.230469 13.421875 Z M 55.230469 13.421875 " fill-opacity="1" fill-rule="nonzero"/><path fill="rgb(100%, 100%, 100%)" d="M 51.453125 17.945312 C 48.9375 17.945312 46.894531 15.917969 46.894531 13.421875 C 46.894531 10.925781 48.9375 8.898438 51.453125 8.898438 C 53.96875 8.898438 56.015625 10.925781 56.015625 13.421875 C 56.015625 15.917969 53.96875 17.945312 51.453125 17.945312 Z M 51.453125 10.453125 C 49.804688 10.453125 48.460938 11.785156 48.460938 13.421875 C 48.460938 15.058594 49.804688 16.390625 51.453125 16.390625 C 53.101562 16.390625 54.445312 15.058594 54.445312 13.421875 C 54.445312 11.785156 53.101562 10.453125 51.453125 10.453125 Z M 51.453125 10.453125 " fill-opacity="1" fill-rule="nonzero"/><path fill="rgb(100%, 100%, 100%)" d="M 51.453125 62.726562 C 51.019531 62.726562 50.667969 62.378906 50.667969 61.949219 L 50.667969 17.167969 C 50.667969 16.738281 51.019531 16.390625 51.453125 16.390625 C 51.886719 16.390625 52.238281 16.738281 52.238281 17.167969 L 52.238281 61.949219 C 52.238281 62.378906 51.886719 62.726562 51.453125 62.726562 Z M 51.453125 62.726562 " fill-opacity="1" fill-rule="nonzero"/><path fill="rgb(100%, 100%, 100%)" d="M 53.804688 58.097656 C 53.679688 58.097656 53.550781 58.066406 53.433594 58.003906 C 52.742188 57.636719 51.929688 57.292969 51.144531 56.960938 C 48.550781 55.867188 45.863281 54.730469 45.863281 52.1875 C 45.863281 49.644531 48.550781 48.511719 51.144531 47.414062 C 53.371094 46.472656 55.472656 45.585938 55.472656 44.070312 C 55.472656 42.558594 53.371094 41.667969 51.144531 40.730469 C 48.550781 39.632812 45.863281 38.5 45.863281 35.957031 C 45.863281 33.414062 48.550781 32.277344 51.144531 31.183594 C 53.371094 30.242188 55.472656 29.355469 55.472656 27.839844 C 55.472656 26.328125 53.371094 25.441406 51.144531 24.5 C 48.550781 23.402344 45.863281 22.269531 45.863281 19.726562 C 45.863281 19.296875 46.214844 18.949219 46.648438 18.949219 C 47.082031 18.949219 47.433594 19.296875 47.433594 19.726562 C 47.433594 21.242188 49.535156 22.128906 51.761719 23.066406 C 54.355469 24.164062 57.039062 25.296875 57.039062 27.839844 C 57.039062 30.382812 54.355469 31.519531 51.761719 32.613281 C 49.535156 33.554688 47.433594 34.441406 47.433594 35.957031 C 47.433594 37.46875 49.535156 38.359375 51.761719 39.296875 C 54.355469 40.394531 57.039062 41.527344 57.039062 44.070312 C 57.039062 46.613281 54.355469 47.75 51.761719 48.847656 C 49.535156 49.785156 47.433594 50.671875 47.433594 52.1875 C 47.433594 53.703125 49.535156 54.589844 51.761719 55.53125 C 52.578125 55.875 53.421875 56.230469 54.175781 56.632812 C 54.558594 56.835938 54.699219 57.308594 54.496094 57.6875 C 54.355469 57.949219 54.082031 58.097656 53.804688 58.097656 Z M 53.804688 58.097656 " fill-opacity="1" fill-rule="nonzero"/><g fill="rgb(1.959229%, 2.349854%, 2.749634%)" fill-opacity="1"><g transform="translate(101.548797, 57.83903)"><g><path d="M 41.625 -13.65625 L 42.03125 0 L 30.25 0 L 14.921875 -26.703125 L 14.25 -26.703125 L 14.1875 -15.1875 L 14.59375 0 L 4.75 0 L 5.28125 -12.71875 L 4.75 -43.171875 L 16.46875 -43.171875 L 31.859375 -16.46875 L 32.53125 -16.46875 L 32.25 -42.765625 L 42.234375 -43.359375 Z M 41.625 -13.65625 "/></g></g></g><g fill="rgb(1.959229%, 2.349854%, 2.749634%)" fill-opacity="1"><g transform="translate(148.453324, 57.83903)"><g><path d="M 33.265625 -8.828125 L 33.859375 -8.03125 L 33.1875 0 L 4.6875 0 L 5.28125 -12.78125 L 4.6875 -43.171875 L 33.59375 -43.171875 L 34.203125 -42.359375 L 33.46875 -34.328125 L 22.953125 -34.734375 L 15.59375 -34.671875 L 15.453125 -26.03125 L 22.484375 -26.03125 L 29.515625 -26.234375 L 30.109375 -25.4375 L 29.453125 -17.40625 L 21.75 -17.59375 L 15.265625 -17.59375 L 15.1875 -13.859375 L 15.328125 -8.5 L 22.421875 -8.4375 Z M 33.265625 -8.828125 "/></g></g></g><g fill="rgb(1.959229%, 2.349854%, 2.749634%)" fill-opacity="1"><g transform="translate(183.380797, 57.83903)"><g><path d="M 46.90625 0 L 35.46875 0 L 30.046875 -18.609375 L 29.375 -18.609375 L 24.03125 0 L 12.515625 0 L 1.203125 -43.171875 L 11.78125 -43.171875 L 12.453125 -37.28125 L 18.671875 -11.046875 L 19.34375 -11.046875 L 25.703125 -32.859375 L 23.015625 -43.171875 L 34 -43.171875 L 34.9375 -36.203125 L 41.421875 -11.046875 L 42.09375 -11.046875 L 49.390625 -36.671875 L 50.53125 -43.171875 L 60.5625 -43.171875 Z M 46.90625 0 "/></g></g></g><g fill="rgb(1.959229%, 2.349854%, 2.749634%)" fill-opacity="1"><g transform="translate(244.068968, 57.83903)"><g/></g></g><g fill="rgb(1.959229%, 2.349854%, 2.749634%)" fill-opacity="1"><g transform="translate(253.771048, 57.83903)"><g><path d="M 29.453125 -8.09375 L 28.703125 0 L 4.421875 0 L 5.015625 -12.78125 L 4.421875 -43.171875 L 15.453125 -43.171875 L 14.859375 -13.859375 L 15.0625 -8.90625 L 28.78125 -8.90625 Z M 29.453125 -8.09375 "/></g></g></g><g fill="rgb(1.959229%, 2.349854%, 2.749634%)" fill-opacity="1"><g transform="translate(283.27875, 57.83903)"><g><path d="M 15.1875 -13.859375 L 15.59375 0 L 4.6875 0 L 5.28125 -12.78125 L 4.6875 -43.171875 L 15.796875 -43.171875 Z M 15.1875 -13.859375 "/></g></g></g><g fill="rgb(1.959229%, 2.349854%, 2.749634%)" fill-opacity="1"><g transform="translate(303.887302, 57.83903)"><g><path d="M 15.59375 -34.671875 L 15.390625 -24.625 L 20.8125 -24.625 L 28.3125 -24.828125 L 28.90625 -24.03125 L 28.234375 -16 L 20.015625 -16.1875 L 15.265625 -16.1875 L 15.1875 -13.859375 L 15.59375 0 L 4.6875 0 L 5.28125 -12.78125 L 4.6875 -43.171875 L 31.71875 -43.171875 L 32.328125 -42.359375 L 31.59375 -34.328125 L 21.140625 -34.734375 Z M 15.59375 -34.671875 "/></g></g></g><g fill="rgb(1.959229%, 2.349854%, 2.749634%)" fill-opacity="1"><g transform="translate(335.06777, 57.83903)"><g><path d="M 33.265625 -8.828125 L 33.859375 -8.03125 L 33.1875 0 L 4.6875 0 L 5.28125 -12.78125 L 4.6875 -43.171875 L 33.59375 -43.171875 L 34.203125 -42.359375 L 33.46875 -34.328125 L 22.953125 -34.734375 L 15.59375 -34.671875 L 15.453125 -26.03125 L 22.484375 -26.03125 L 29.515625 -26.234375 L 30.109375 -25.4375 L 29.453125 -17.40625 L 21.75 -17.59375 L 15.265625 -17.59375 L 15.1875 -13.859375 L 15.328125 -8.5 L 22.421875 -8.4375 Z M 33.265625 -8.828125 "/></g></g></g></svg>