<svg xmlns="http://www.w3.org/2000/svg" xmlns:xlink="http://www.w3.org/1999/xlink" width="500" zoomAndPan="magnify" viewBox="0 0 375 74.999997" height="100" preserveAspectRatio="xMidYMid meet" version="1.0"><defs><g><g id="id1"/></g><clipPath id="id2"><path d="M 2.433594 0.613281 L 73.683594 0.613281 L 73.683594 74.113281 L 2.433594 74.113281 Z M 2.433594 0.613281 " clip-rule="nonzero"/></clipPath><clipPath id="id3"><path d="M 73.679688 23.417969 L 62.117188 7.804688 L 47.824219 18.226562 L 47.824219 0.625 L 28.296875 0.625 L 28.296875 18.226562 L 14 7.804688 L 2.441406 23.417969 L 21.570312 37.363281 L 2.441406 51.304688 L 14 66.917969 L 28.296875 56.5 L 28.296875 74.101562 L 47.824219 74.101562 L 47.824219 56.5 L 62.117188 66.917969 L 73.679688 51.304688 L 54.550781 37.363281 Z M 73.679688 23.417969 " clip-rule="nonzero"/></clipPath><linearGradient x1="115.917991" gradientTransform="matrix(0.368407, 0, 0, 0.365552, -40.263262, -40.354102)" y1="212.60001" x2="309.282973" gradientUnits="userSpaceOnUse" y2="212.60001" xlink:type="simple" xlink:actuate="onLoad" id="id4" xlink:show="other"><stop stop-opacity="1" stop-color="rgb(100%, 42.698669%, 52.49939%)" offset="0"/><stop stop-opacity="1" stop-color="rgb(99.964905%, 42.558289%, 52.377319%)" offset="0.015625"/><stop stop-opacity="1" stop-color="rgb(99.897766%, 42.277527%, 52.133179%)" offset="0.03125"/><stop stop-opacity="1" stop-color="rgb(99.830627%, 41.995239%, 51.889038%)" offset="0.046875"/><stop stop-opacity="1" stop-color="rgb(99.763489%, 41.714478%, 51.646423%)" offset="0.0625"/><stop stop-opacity="1" stop-color="rgb(99.69635%, 41.433716%, 51.402283%)" offset="0.078125"/><stop stop-opacity="1" stop-color="rgb(99.629211%, 41.151428%, 51.158142%)" offset="0.09375"/><stop stop-opacity="1" stop-color="rgb(99.562073%, 40.870667%, 50.914001%)" offset="0.109375"/><stop stop-opacity="1" stop-color="rgb(99.494934%, 40.589905%, 50.671387%)" offset="0.125"/><stop stop-opacity="1" stop-color="rgb(99.427795%, 40.307617%, 50.427246%)" offset="0.140625"/><stop stop-opacity="1" stop-color="rgb(99.360657%, 40.026855%, 50.183105%)" offset="0.15625"/><stop stop-opacity="1" stop-color="rgb(99.293518%, 39.746094%, 49.938965%)" offset="0.171875"/><stop stop-opacity="1" stop-color="rgb(99.226379%, 39.465332%, 49.69635%)" offset="0.1875"/><stop stop-opacity="1" stop-color="rgb(99.159241%, 39.183044%, 49.452209%)" offset="0.203125"/><stop stop-opacity="1" stop-color="rgb(99.092102%, 38.902283%, 49.208069%)" offset="0.21875"/><stop stop-opacity="1" stop-color="rgb(99.024963%, 38.621521%, 48.963928%)" offset="0.234375"/><stop stop-opacity="1" stop-color="rgb(98.957825%, 38.339233%, 48.721313%)" offset="0.25"/><stop stop-opacity="1" stop-color="rgb(98.890686%, 38.058472%, 48.477173%)" offset="0.265625"/><stop stop-opacity="1" stop-color="rgb(98.823547%, 37.77771%, 48.233032%)" offset="0.28125"/><stop stop-opacity="1" stop-color="rgb(98.756409%, 37.495422%, 47.990417%)" offset="0.296875"/><stop stop-opacity="1" stop-color="rgb(98.68927%, 37.214661%, 47.746277%)" offset="0.3125"/><stop stop-opacity="1" stop-color="rgb(98.622131%, 36.933899%, 47.502136%)" offset="0.328125"/><stop stop-opacity="1" stop-color="rgb(98.554993%, 36.651611%, 47.257996%)" offset="0.34375"/><stop stop-opacity="1" stop-color="rgb(98.487854%, 36.37085%, 47.015381%)" offset="0.359375"/><stop stop-opacity="1" stop-color="rgb(98.420715%, 36.090088%, 46.77124%)" offset="0.375"/><stop stop-opacity="1" stop-color="rgb(98.353577%, 35.8078%, 46.5271%)" offset="0.390625"/><stop stop-opacity="1" stop-color="rgb(98.286438%, 35.527039%, 46.282959%)" offset="0.40625"/><stop stop-opacity="1" stop-color="rgb(98.219299%, 35.246277%, 46.040344%)" offset="0.421875"/><stop stop-opacity="1" stop-color="rgb(98.152161%, 34.963989%, 45.796204%)" offset="0.4375"/><stop stop-opacity="1" stop-color="rgb(98.085022%, 34.683228%, 45.552063%)" offset="0.453125"/><stop stop-opacity="1" stop-color="rgb(98.017883%, 34.402466%, 45.307922%)" offset="0.46875"/><stop stop-opacity="1" stop-color="rgb(97.950745%, 34.120178%, 45.065308%)" offset="0.484375"/><stop stop-opacity="1" stop-color="rgb(97.88208%, 33.839417%, 44.821167%)" offset="0.5"/><stop stop-opacity="1" stop-color="rgb(97.814941%, 33.558655%, 44.577026%)" offset="0.515625"/><stop stop-opacity="1" stop-color="rgb(97.747803%, 33.276367%, 44.332886%)" offset="0.53125"/><stop stop-opacity="1" stop-color="rgb(97.680664%, 32.995605%, 44.090271%)" offset="0.546875"/><stop stop-opacity="1" stop-color="rgb(97.613525%, 32.714844%, 43.84613%)" offset="0.5625"/><stop stop-opacity="1" stop-color="rgb(97.546387%, 32.434082%, 43.60199%)" offset="0.578125"/><stop stop-opacity="1" stop-color="rgb(97.479248%, 32.151794%, 43.357849%)" offset="0.59375"/><stop stop-opacity="1" stop-color="rgb(97.412109%, 31.871033%, 43.115234%)" offset="0.609375"/><stop stop-opacity="1" stop-color="rgb(97.344971%, 31.590271%, 42.871094%)" offset="0.625"/><stop stop-opacity="1" stop-color="rgb(97.277832%, 31.307983%, 42.626953%)" offset="0.640625"/><stop stop-opacity="1" stop-color="rgb(97.210693%, 31.027222%, 42.382812%)" offset="0.65625"/><stop stop-opacity="1" stop-color="rgb(97.143555%, 30.74646%, 42.140198%)" offset="0.671875"/><stop stop-opacity="1" stop-color="rgb(97.076416%, 30.464172%, 41.896057%)" offset="0.6875"/><stop stop-opacity="1" stop-color="rgb(97.009277%, 30.183411%, 41.651917%)" offset="0.703125"/><stop stop-opacity="1" stop-color="rgb(96.942139%, 29.902649%, 41.407776%)" offset="0.71875"/><stop stop-opacity="1" stop-color="rgb(96.875%, 29.620361%, 41.165161%)" offset="0.734375"/><stop stop-opacity="1" stop-color="rgb(96.807861%, 29.3396%, 40.921021%)" offset="0.75"/><stop stop-opacity="1" stop-color="rgb(96.740723%, 29.058838%, 40.67688%)" offset="0.765625"/><stop stop-opacity="1" stop-color="rgb(96.673584%, 28.77655%, 40.432739%)" offset="0.78125"/><stop stop-opacity="1" stop-color="rgb(96.606445%, 28.495789%, 40.190125%)" offset="0.796875"/><stop stop-opacity="1" stop-color="rgb(96.539307%, 28.215027%, 39.945984%)" offset="0.8125"/><stop stop-opacity="1" stop-color="rgb(96.472168%, 27.932739%, 39.701843%)" offset="0.828125"/><stop stop-opacity="1" stop-color="rgb(96.405029%, 27.651978%, 39.457703%)" offset="0.84375"/><stop stop-opacity="1" stop-color="rgb(96.337891%, 27.371216%, 39.215088%)" offset="0.859375"/><stop stop-opacity="1" stop-color="rgb(96.270752%, 27.088928%, 38.970947%)" offset="0.875"/><stop stop-opacity="1" stop-color="rgb(96.203613%, 26.808167%, 38.726807%)" offset="0.890625"/><stop stop-opacity="1" stop-color="rgb(96.136475%, 26.527405%, 38.482666%)" offset="0.90625"/><stop stop-opacity="1" stop-color="rgb(96.069336%, 26.245117%, 38.240051%)" offset="0.921875"/><stop stop-opacity="1" stop-color="rgb(96.002197%, 25.964355%, 37.995911%)" offset="0.9375"/><stop stop-opacity="1" stop-color="rgb(95.935059%, 25.683594%, 37.75177%)" offset="0.953125"/><stop stop-opacity="1" stop-color="rgb(95.86792%, 25.402832%, 37.509155%)" offset="0.96875"/><stop stop-opacity="1" stop-color="rgb(95.799255%, 25.120544%, 37.265015%)" offset="0.984375"/><stop stop-opacity="1" stop-color="rgb(95.732117%, 24.839783%, 37.020874%)" offset="1"/></linearGradient></defs><g clip-path="url(#id2)"><g clip-path="url(#id3)"><path fill="url(#id4)" d="M 2.441406 0.625 L 2.441406 74.101562 L 73.679688 74.101562 L 73.679688 0.625 Z M 2.441406 0.625 " fill-rule="nonzero"/></g></g><path fill="rgb(1.959229%, 2.349854%, 2.749634%)" d="M 41.835938 13.421875 C 41.835938 13.917969 41.742188 14.398438 41.550781 14.855469 C 41.359375 15.316406 41.085938 15.71875 40.730469 16.070312 C 40.375 16.421875 39.96875 16.695312 39.503906 16.882812 C 39.042969 17.074219 38.5625 17.167969 38.058594 17.167969 C 37.558594 17.167969 37.078125 17.074219 36.617188 16.882812 C 36.152344 16.695312 35.746094 16.421875 35.390625 16.070312 C 35.035156 15.71875 34.761719 15.316406 34.570312 14.855469 C 34.378906 14.398438 34.285156 13.917969 34.285156 13.421875 C 34.285156 12.925781 34.378906 12.445312 34.570312 11.988281 C 34.761719 11.527344 35.035156 11.125 35.390625 10.773438 C 35.746094 10.421875 36.152344 10.148438 36.617188 9.960938 C 37.078125 9.769531 37.558594 9.675781 38.058594 9.675781 C 38.5625 9.675781 39.042969 9.769531 39.503906 9.960938 C 39.96875 10.148438 40.375 10.421875 40.730469 10.773438 C 41.085938 11.125 41.359375 11.527344 41.550781 11.988281 C 41.742188 12.445312 41.835938 12.925781 41.835938 13.421875 Z M 41.835938 13.421875 " fill-opacity="1" fill-rule="nonzero"/><path fill="rgb(100%, 100%, 100%)" d="M 38.058594 17.945312 C 35.546875 17.945312 33.5 15.917969 33.5 13.421875 C 33.5 10.925781 35.546875 8.898438 38.058594 8.898438 C 40.574219 8.898438 42.621094 10.925781 42.621094 13.421875 C 42.621094 15.917969 40.574219 17.945312 38.058594 17.945312 Z M 38.058594 10.453125 C 36.410156 10.453125 35.070312 11.785156 35.070312 13.421875 C 35.070312 15.058594 36.410156 16.390625 38.058594 16.390625 C 39.710938 16.390625 41.050781 15.058594 41.050781 13.421875 C 41.050781 11.785156 39.710938 10.453125 38.058594 10.453125 Z M 38.058594 10.453125 " fill-opacity="1" fill-rule="nonzero"/><path fill="rgb(100%, 100%, 100%)" d="M 38.058594 62.726562 C 37.628906 62.726562 37.277344 62.378906 37.277344 61.949219 L 37.277344 17.167969 C 37.277344 16.738281 37.628906 16.390625 38.058594 16.390625 C 38.492188 16.390625 38.84375 16.738281 38.84375 17.167969 L 38.84375 61.949219 C 38.84375 62.378906 38.492188 62.726562 38.058594 62.726562 Z M 38.058594 62.726562 " fill-opacity="1" fill-rule="nonzero"/><path fill="rgb(100%, 100%, 100%)" d="M 40.410156 58.097656 C 40.285156 58.097656 40.160156 58.066406 40.039062 58.003906 C 39.351562 57.636719 38.539062 57.292969 37.753906 56.960938 C 35.15625 55.867188 32.472656 54.730469 32.472656 52.1875 C 32.472656 49.644531 35.15625 48.511719 37.753906 47.414062 C 39.976562 46.472656 42.078125 45.585938 42.078125 44.070312 C 42.078125 42.558594 39.976562 41.667969 37.753906 40.730469 C 35.15625 39.632812 32.472656 38.5 32.472656 35.957031 C 32.472656 33.414062 35.15625 32.277344 37.753906 31.183594 C 39.976562 30.242188 42.078125 29.355469 42.078125 27.839844 C 42.078125 26.328125 39.976562 25.441406 37.753906 24.5 C 35.15625 23.402344 32.472656 22.269531 32.472656 19.726562 C 32.472656 19.296875 32.824219 18.949219 33.257812 18.949219 C 33.6875 18.949219 34.039062 19.296875 34.039062 19.726562 C 34.039062 21.242188 36.140625 22.128906 38.367188 23.066406 C 40.964844 24.164062 43.648438 25.296875 43.648438 27.839844 C 43.648438 30.382812 40.964844 31.519531 38.367188 32.613281 C 36.140625 33.554688 34.039062 34.441406 34.039062 35.957031 C 34.039062 37.46875 36.140625 38.359375 38.367188 39.296875 C 40.964844 40.394531 43.648438 41.527344 43.648438 44.070312 C 43.648438 46.613281 40.964844 47.75 38.367188 48.847656 C 36.140625 49.785156 34.039062 50.671875 34.039062 52.1875 C 34.039062 53.703125 36.140625 54.589844 38.367188 55.53125 C 39.183594 55.875 40.03125 56.230469 40.78125 56.632812 C 41.164062 56.835938 41.308594 57.308594 41.101562 57.6875 C 40.960938 57.949219 40.691406 58.097656 40.410156 58.097656 Z M 40.410156 58.097656 " fill-opacity="1" fill-rule="nonzero"/><g fill="rgb(1.959229%, 2.349854%, 2.749634%)" fill-opacity="1"><g transform="translate(83.222431, 64.169419)"><g><path d="M 0.65625 -53.140625 C 0.65625 -53.773438 0.835938 -54.253906 1.203125 -54.578125 C 1.566406 -54.898438 2 -55.082031 2.5 -55.125 C 3 -55.164062 3.507812 -55.070312 4.03125 -54.84375 C 4.550781 -54.625 4.972656 -54.273438 5.296875 -53.796875 L 35.296875 -9.640625 L 35.296875 -53.140625 C 35.296875 -53.859375 35.546875 -54.382812 36.046875 -54.71875 C 36.554688 -55.0625 37.09375 -55.234375 37.65625 -55.234375 C 38.21875 -55.234375 38.75 -55.050781 39.25 -54.6875 C 39.75 -54.332031 40 -53.816406 40 -53.140625 L 40 -1.921875 C 40 -1.359375 39.804688 -0.925781 39.421875 -0.625 C 39.046875 -0.332031 38.601562 -0.15625 38.09375 -0.09375 C 37.59375 -0.03125 37.082031 -0.0976562 36.5625 -0.296875 C 36.039062 -0.503906 35.640625 -0.828125 35.359375 -1.265625 L 5.359375 -45.421875 L 5.65625 -1.921875 C 5.65625 -1.242188 5.394531 -0.753906 4.875 -0.453125 C 4.351562 -0.148438 3.789062 -0.0195312 3.1875 -0.0625 C 2.59375 -0.101562 2.050781 -0.28125 1.5625 -0.59375 C 1.082031 -0.914062 0.882812 -1.359375 0.96875 -1.921875 Z M 0.65625 -53.140625 "/></g></g></g><g fill="rgb(1.959229%, 2.349854%, 2.749634%)" fill-opacity="1"><g transform="translate(124.18506, 64.169419)"><g><path d="M 4.578125 0.0625 C 3.492188 0.0625 2.628906 -0.132812 1.984375 -0.53125 C 1.347656 -0.9375 1.03125 -1.722656 1.03125 -2.890625 L 1.03125 -51.5625 C 1.03125 -52.851562 1.25 -53.785156 1.6875 -54.359375 C 2.125 -54.941406 2.804688 -55.234375 3.734375 -55.234375 L 36.5 -55.234375 C 37.1875 -55.234375 37.679688 -54.972656 37.984375 -54.453125 C 38.285156 -53.929688 38.414062 -53.367188 38.375 -52.765625 C 38.332031 -52.171875 38.148438 -51.628906 37.828125 -51.140625 C 37.503906 -50.660156 37.0625 -50.460938 36.5 -50.546875 L 5.78125 -50.546875 L 5.78125 -30.71875 L 31.5625 -30.71875 C 32.25 -30.71875 32.742188 -30.457031 33.046875 -29.9375 C 33.347656 -29.414062 33.476562 -28.851562 33.4375 -28.25 C 33.394531 -27.644531 33.210938 -27.101562 32.890625 -26.625 C 32.566406 -26.144531 32.125 -25.945312 31.5625 -26.03125 L 5.78125 -26.03125 L 5.78125 -4.640625 L 36.390625 -4.640625 C 37.066406 -4.640625 37.554688 -4.378906 37.859375 -3.859375 C 38.160156 -3.335938 38.289062 -2.773438 38.25 -2.171875 C 38.207031 -1.566406 38.023438 -1.019531 37.703125 -0.53125 C 37.390625 -0.0507812 36.953125 0.144531 36.390625 0.0625 Z M 4.578125 0.0625 "/></g></g></g><g fill="rgb(1.959229%, 2.349854%, 2.749634%)" fill-opacity="1"><g transform="translate(162.91884, 64.169419)"><g><path d="M 33.671875 -35.1875 L 24.15625 -2.703125 C 23.75 -1.785156 23.234375 -1.101562 22.609375 -0.65625 C 21.992188 -0.21875 21.351562 0 20.6875 0 C 20.03125 0 19.398438 -0.207031 18.796875 -0.625 C 18.191406 -1.050781 17.707031 -1.6875 17.34375 -2.53125 L 0.609375 -52.296875 C 0.328125 -52.929688 0.332031 -53.507812 0.625 -54.03125 C 0.925781 -54.550781 1.347656 -54.921875 1.890625 -55.140625 C 2.429688 -55.367188 2.992188 -55.421875 3.578125 -55.296875 C 4.160156 -55.179688 4.59375 -54.800781 4.875 -54.15625 L 20.65625 -5.96875 L 31.390625 -43.1875 C 31.546875 -43.789062 31.84375 -44.253906 32.28125 -44.578125 C 32.726562 -44.898438 33.191406 -45.0625 33.671875 -45.0625 C 34.148438 -45.0625 34.597656 -44.898438 35.015625 -44.578125 C 35.441406 -44.253906 35.757812 -43.773438 35.96875 -43.140625 L 46.75 -5.90625 L 62.53125 -54.09375 C 62.8125 -54.738281 63.242188 -55.117188 63.828125 -55.234375 C 64.410156 -55.359375 64.972656 -55.3125 65.515625 -55.09375 C 66.054688 -54.875 66.476562 -54.5 66.78125 -53.96875 C 67.082031 -53.445312 67.09375 -52.867188 66.8125 -52.234375 L 50.0625 -2.46875 C 49.695312 -1.625 49.210938 -0.988281 48.609375 -0.5625 C 48.015625 -0.144531 47.382812 0.0625 46.71875 0.0625 C 46.050781 0.0625 45.40625 -0.15625 44.78125 -0.59375 C 44.164062 -1.039062 43.65625 -1.726562 43.25 -2.65625 Z M 33.671875 -35.1875 "/></g></g></g><g fill="rgb(1.959229%, 2.349854%, 2.749634%)" fill-opacity="1"><g transform="translate(230.266221, 64.169419)"><g/></g></g><g fill="rgb(1.959229%, 2.349854%, 2.749634%)" fill-opacity="1"><g transform="translate(248.337969, 64.169419)"><g><path d="M 4.578125 0.0625 C 3.492188 0.0625 2.628906 -0.132812 1.984375 -0.53125 C 1.347656 -0.9375 1.03125 -1.722656 1.03125 -2.890625 L 1.03125 -53.375 C 1.03125 -54.019531 1.269531 -54.5 1.75 -54.8125 C 2.226562 -55.132812 2.75 -55.285156 3.3125 -55.265625 C 3.875 -55.242188 4.40625 -55.070312 4.90625 -54.75 C 5.40625 -54.4375 5.675781 -53.957031 5.71875 -53.3125 L 5.71875 -4.640625 L 36.390625 -4.640625 C 37.066406 -4.640625 37.554688 -4.378906 37.859375 -3.859375 C 38.160156 -3.335938 38.289062 -2.773438 38.25 -2.171875 C 38.207031 -1.566406 38.023438 -1.019531 37.703125 -0.53125 C 37.390625 -0.0507812 36.953125 0.144531 36.390625 0.0625 Z M 4.578125 0.0625 "/></g></g></g><g fill="rgb(1.959229%, 2.349854%, 2.749634%)" fill-opacity="1"><g transform="translate(287.071748, 64.169419)"><g><path d="M 1.8125 -53.140625 C 1.8125 -53.859375 2.0625 -54.382812 2.5625 -54.71875 C 3.0625 -55.0625 3.59375 -55.234375 4.15625 -55.234375 C 4.71875 -55.234375 5.25 -55.050781 5.75 -54.6875 C 6.25 -54.332031 6.5 -53.816406 6.5 -53.140625 L 6.5 -1.921875 C 6.5 -1.242188 6.238281 -0.753906 5.71875 -0.453125 C 5.195312 -0.148438 4.632812 -0.0195312 4.03125 -0.0625 C 3.425781 -0.101562 2.882812 -0.28125 2.40625 -0.59375 C 1.925781 -0.914062 1.726562 -1.359375 1.8125 -1.921875 Z M 1.8125 -53.140625 "/></g></g></g><g fill="rgb(1.959229%, 2.349854%, 2.749634%)" fill-opacity="1"><g transform="translate(295.143796, 64.169419)"><g><path d="M 5.71875 -1.5625 C 5.675781 -0.925781 5.40625 -0.457031 4.90625 -0.15625 C 4.40625 0.144531 3.875 0.296875 3.3125 0.296875 C 2.75 0.296875 2.226562 0.15625 1.75 -0.125 C 1.269531 -0.40625 1.03125 -0.828125 1.03125 -1.390625 L 1.03125 -51.5625 C 1.03125 -52.851562 1.25 -53.785156 1.6875 -54.359375 C 2.125 -54.941406 2.804688 -55.234375 3.734375 -55.234375 L 36.5 -55.234375 C 37.1875 -55.234375 37.679688 -54.972656 37.984375 -54.453125 C 38.285156 -53.929688 38.414062 -53.367188 38.375 -52.765625 C 38.332031 -52.171875 38.148438 -51.628906 37.828125 -51.140625 C 37.503906 -50.660156 37.0625 -50.460938 36.5 -50.546875 L 5.71875 -50.546875 L 5.71875 -30.71875 L 31.078125 -30.71875 C 31.765625 -30.71875 32.257812 -30.457031 32.5625 -29.9375 C 32.863281 -29.414062 32.992188 -28.851562 32.953125 -28.25 C 32.910156 -27.644531 32.726562 -27.101562 32.40625 -26.625 C 32.082031 -26.144531 31.640625 -25.945312 31.078125 -26.03125 L 5.71875 -26.03125 Z M 5.71875 -1.5625 "/></g></g></g><g fill="rgb(1.959229%, 2.349854%, 2.749634%)" fill-opacity="1"><g transform="translate(333.877575, 64.169419)"><g><path d="M 4.578125 0.0625 C 3.492188 0.0625 2.628906 -0.132812 1.984375 -0.53125 C 1.347656 -0.9375 1.03125 -1.722656 1.03125 -2.890625 L 1.03125 -51.5625 C 1.03125 -52.851562 1.25 -53.785156 1.6875 -54.359375 C 2.125 -54.941406 2.804688 -55.234375 3.734375 -55.234375 L 36.5 -55.234375 C 37.1875 -55.234375 37.679688 -54.972656 37.984375 -54.453125 C 38.285156 -53.929688 38.414062 -53.367188 38.375 -52.765625 C 38.332031 -52.171875 38.148438 -51.628906 37.828125 -51.140625 C 37.503906 -50.660156 37.0625 -50.460938 36.5 -50.546875 L 5.78125 -50.546875 L 5.78125 -30.71875 L 31.5625 -30.71875 C 32.25 -30.71875 32.742188 -30.457031 33.046875 -29.9375 C 33.347656 -29.414062 33.476562 -28.851562 33.4375 -28.25 C 33.394531 -27.644531 33.210938 -27.101562 32.890625 -26.625 C 32.566406 -26.144531 32.125 -25.945312 31.5625 -26.03125 L 5.78125 -26.03125 L 5.78125 -4.640625 L 36.390625 -4.640625 C 37.066406 -4.640625 37.554688 -4.378906 37.859375 -3.859375 C 38.160156 -3.335938 38.289062 -2.773438 38.25 -2.171875 C 38.207031 -1.566406 38.023438 -1.019531 37.703125 -0.53125 C 37.390625 -0.0507812 36.953125 0.144531 36.390625 0.0625 Z M 4.578125 0.0625 "/></g></g></g></svg>